<svg width="86" height="86" viewBox="0 0 86 86" fill="none" xmlns="http://www.w3.org/2000/svg">
<mask id="path-1-inside-1_477_249" fill="white">
<path d="M43 0C52.0807 1.08286e-07 60.9283 2.87476 68.2748 8.21227C75.6212 13.5498 81.0893 21.076 83.8954 29.7123C86.7015 38.3485 86.7015 47.6515 83.8954 56.2877C81.0893 64.924 75.6212 72.4502 68.2748 77.7877L63.2198 70.8302C69.097 66.5602 73.4715 60.5392 75.7163 53.6302C77.9612 46.7212 77.9612 39.2788 75.7163 32.3698C73.4715 25.4608 69.097 19.4398 63.2198 15.1698C57.3427 10.8998 50.2646 8.6 43 8.6V0Z"/>
</mask>
<path d="M43 0C52.0807 1.08286e-07 60.9283 2.87476 68.2748 8.21227C75.6212 13.5498 81.0893 21.076 83.8954 29.7123C86.7015 38.3485 86.7015 47.6515 83.8954 56.2877C81.0893 64.924 75.6212 72.4502 68.2748 77.7877L63.2198 70.8302C69.097 66.5602 73.4715 60.5392 75.7163 53.6302C77.9612 46.7212 77.9612 39.2788 75.7163 32.3698C73.4715 25.4608 69.097 19.4398 63.2198 15.1698C57.3427 10.8998 50.2646 8.6 43 8.6V0Z" stroke="#006CA9" stroke-width="24" mask="url(#path-1-inside-1_477_249)"/>
<mask id="path-2-inside-2_477_249" fill="white">
<path d="M70.6399 75.9399C65.0915 80.5956 58.457 83.7743 51.3521 85.1811C44.2471 86.5879 36.9019 86.1772 29.9981 83.9872C23.0942 81.7972 16.8554 77.8987 11.8606 72.6536C6.86578 67.4085 3.27676 60.9868 1.4266 53.9842L9.74127 51.7873C11.2214 57.3894 14.0926 62.5268 18.0885 66.7229C22.0844 70.919 27.0754 74.0377 32.5985 75.7898C38.1216 77.5418 43.9977 77.8703 49.6817 76.7449C55.3656 75.6194 60.6732 73.0764 65.1119 69.3519L70.6399 75.9399Z"/>
</mask>
<path d="M70.6399 75.9399C65.0915 80.5956 58.457 83.7743 51.3521 85.1811C44.2471 86.5879 36.9019 86.1772 29.9981 83.9872C23.0942 81.7972 16.8554 77.8987 11.8606 72.6536C6.86578 67.4085 3.27676 60.9868 1.4266 53.9842L9.74127 51.7873C11.2214 57.3894 14.0926 62.5268 18.0885 66.7229C22.0844 70.919 27.0754 74.0377 32.5985 75.7898C38.1216 77.5418 43.9977 77.8703 49.6817 76.7449C55.3656 75.6194 60.6732 73.0764 65.1119 69.3519L70.6399 75.9399Z" stroke="#0086D2" stroke-width="24" mask="url(#path-2-inside-2_477_249)"/>
<mask id="path-3-inside-3_477_249" fill="white">
<path d="M13.6741 11.5518C21.6728 4.09283 32.2132 -0.0379128 43.1501 0.000261941L43.1201 8.60021C34.3706 8.56967 25.9383 11.8743 19.5393 17.8414L13.6741 11.5518Z"/>
</mask>
<path d="M13.6741 11.5518C21.6728 4.09283 32.2132 -0.0379128 43.1501 0.000261941L43.1201 8.60021C34.3706 8.56967 25.9383 11.8743 19.5393 17.8414L13.6741 11.5518Z" stroke="#94D8FF" stroke-width="24" mask="url(#path-3-inside-3_477_249)"/>
<mask id="path-4-inside-4_477_249" fill="white">
<path d="M1.46519 54.1292C-0.646707 46.2475 -0.47243 37.9276 1.96766 30.1413C4.40776 22.3549 9.01294 15.4235 15.2453 10.1568L20.7963 16.7254C15.8103 20.9388 12.1262 26.4839 10.1741 32.713C8.22205 38.9421 8.08263 45.598 9.77215 51.9034L1.46519 54.1292Z"/>
</mask>
<path d="M1.46519 54.1292C-0.646707 46.2475 -0.47243 37.9276 1.96766 30.1413C4.40776 22.3549 9.01294 15.4235 15.2453 10.1568L20.7963 16.7254C15.8103 20.9388 12.1262 26.4839 10.1741 32.713C8.22205 38.9421 8.08263 45.598 9.77215 51.9034L1.46519 54.1292Z" stroke="#40BAFF" stroke-width="24" mask="url(#path-4-inside-4_477_249)"/>
</svg>
