<svg width="19" height="19" viewBox="0 0 19 19" fill="none" xmlns="http://www.w3.org/2000/svg">
<path d="M17.4958 7.20417C17.4166 4.5125 15.2791 2.375 12.5874 2.375C11.7166 2.375 10.3708 3.00833 9.81659 4.0375C9.73742 4.275 9.42075 4.275 9.34159 4.0375C8.70825 3.0875 7.44159 2.45417 6.49159 2.45417C3.87909 2.45417 1.66242 4.59167 1.58325 7.20417V7.3625C1.58325 8.70833 2.13742 9.975 3.08742 10.925C3.08742 10.925 3.08742 10.925 3.08742 11.0042C3.16659 11.0833 6.96659 14.4083 8.70825 15.9125C9.18325 16.3083 9.89575 16.3083 10.3708 15.9125C12.1124 14.4083 15.8333 11.0833 15.9916 11.0042C15.9916 11.0042 15.9916 11.0042 15.9916 10.925C16.9416 10.0542 17.4958 8.7875 17.4958 7.3625V7.20417Z" fill="#40BAFF"/>
</svg>
