<svg width="18" height="12" viewBox="0 0 18 12" fill="none" xmlns="http://www.w3.org/2000/svg">
<g clip-path="url(#clip0_464_236)">
<path d="M18 11.6183C17.8709 11.9034 17.6487 12.004 17.3292 11.9998C16.3626 11.9862 15.3959 11.9951 14.4293 11.9945C14.0845 11.9945 13.8537 11.7902 13.8515 11.4862C13.8494 11.1739 14.0807 10.9679 14.4363 10.9674C14.7509 10.9674 15.0656 10.9674 15.3895 10.9674V7.45144H2.61323V10.9674C2.95159 10.9674 3.2894 10.9648 3.62722 10.9684C3.89672 10.971 4.11673 11.1629 4.14632 11.4118C4.17752 11.6759 4.01184 11.918 3.7504 11.982C3.69446 11.9956 3.63421 11.994 3.57612 11.9945C2.5745 11.9951 1.57235 11.9956 0.570738 11.9945C0.229694 11.994 -0.000536983 11.7849 9.40616e-07 11.4794C0.000538864 11.1749 0.231308 10.9684 0.573965 10.9679C0.889727 10.9674 1.20549 10.9679 1.54653 10.9679C1.54653 10.8882 1.54653 10.8164 1.54653 10.7452C1.54653 7.34872 1.54653 3.95227 1.54546 0.555813C1.54546 0.343043 1.62345 0.178488 1.81388 0.0721027C1.99139 -0.0269452 2.17321 -0.0227527 2.34696 0.0794396C2.52125 0.181632 2.60194 0.337279 2.6014 0.536947C2.59925 1.05629 2.60086 1.57564 2.60086 2.09551C2.60086 2.15735 2.60086 2.21919 2.60086 2.29099H15.3986C15.3986 1.96869 15.3986 1.65111 15.3986 1.333C15.3986 1.07044 15.3975 0.807888 15.3986 0.545332C15.4002 0.228274 15.6192 0.00554668 15.9268 0.00607075C16.234 0.00659481 16.4524 0.229322 16.4524 0.547952C16.4529 3.93864 16.4524 7.32933 16.4524 10.72C16.4524 10.7939 16.4524 10.8678 16.4524 10.9679C16.7843 10.9679 17.1103 10.9548 17.4341 10.9742C17.5702 10.9826 17.7133 11.0423 17.8322 11.1125C17.908 11.1576 17.9451 11.265 17.9995 11.3447V11.6188L18 11.6183ZM2.60947 4.34427H15.3846V3.33597H2.60947V4.34427ZM15.3905 5.39449H2.61485V6.40226H15.39V5.39449H15.3905Z" fill="#0086D2"/>
</g>
<defs>
<clipPath id="clip0_464_236">
<rect width="18" height="12" fill="white"/>
</clipPath>
</defs>
</svg>
