<svg width="25" height="25" viewBox="0 0 25 25" fill="none" xmlns="http://www.w3.org/2000/svg">
<ellipse cx="12.5" cy="12.5" rx="12.5" ry="12.5" fill="#40BAFF"/>
<path d="M10.5072 9.67107C10.3702 9.44771 10.0509 9.44771 9.91395 9.67107L4.78346 18.0357C4.63786 18.2731 4.80535 18.5811 5.08009 18.5811H15.3411C15.3418 18.5811 15.3426 18.5811 15.3433 18.5811H19.582C19.8701 18.5811 20.0347 18.2461 19.8621 18.0111L14.7992 11.1182C14.6593 10.9277 14.379 10.9277 14.2391 11.1182L12.6891 13.2284L10.5072 9.67107Z" fill="#BEE7FF"/>
<path d="M19.8462 7.86315C19.8462 8.84737 19.1023 9.64524 18.1846 9.64524C17.267 9.64524 16.5231 8.84737 16.5231 7.86315C16.5231 6.87893 17.267 6.08105 18.1846 6.08105C19.1023 6.08105 19.8462 6.87893 19.8462 7.86315Z" fill="#BEE7FF"/>
</svg>
